<svg width="19" height="16" viewBox="0 0 19 16" fill="none" xmlns="http://www.w3.org/2000/svg">
<path d="M16.2822 3.15748H10.5851C10.3539 3.15748 10.128 3.06252 9.97199 2.90112L8.19439 1.02856C7.7671 0.602642 7.18249 0.380173 6.59039 0.383584H2.71779C1.49496 0.383548 0.5 1.3785 0.5 2.60131V13.3986C0.5 14.6214 1.49496 15.6164 2.71779 15.6164H16.2903H16.2924C17.5145 15.611 18.5054 14.6113 18.5 13.3918V5.37523C18.5 4.1524 17.505 3.15748 16.2822 3.15748ZM17.1435 13.3945C17.1456 13.8693 16.761 14.2579 16.289 14.2599H2.71779C2.24304 14.2599 1.85647 13.8734 1.85647 13.3986V2.60131C1.85647 2.12656 2.24304 1.73998 2.71779 1.73928H6.60804C6.61549 1.73928 6.62294 1.73928 6.63043 1.73928C6.85694 1.73928 7.0767 1.82949 7.22453 1.97598L8.99264 3.83972C9.4077 4.26834 9.98827 4.51387 10.5851 4.51387H16.2822C16.7569 4.51387 17.1435 4.90045 17.1435 5.3752V13.3945H17.1435Z" fill="currentColor"/>
</svg>
